HIERARCHY
ROOT pelvis
{
  OFFSET 0 100 0
  CHANNELS 6 Xposition Yposition Zposition Zrotation Xrotation Yrotation
  JOINT pelvis_right_femur
  {
    OFFSET -10.78128 -3.44521 -0.5502486
    CHANNELS 3 Zrotation Xrotation Yrotation
    JOINT right_femur_tibia
    {
      OFFSET -0.8047443 -44.0398 -0.1307829
      CHANNELS 3 Zrotation Xrotation Yrotation
      JOINT right_tibia_foot
      {
        OFFSET 3.006224 -47.83518 -5
        CHANNELS 3 Zrotation Xrotation Yrotation
        End Site
        {
          OFFSET 0 -5 15
        }
      }
    }
  }
  JOINT pelvis_left_femur
  {
    OFFSET 10.78128 -3.44521 -0.5502486
    CHANNELS 3 Zrotation Xrotation Yrotation
    JOINT left_femur_tibia
    {
      OFFSET 0.8047443 -44.0398 -0.1307829
      CHANNELS 3 Zrotation Xrotation Yrotation
      JOINT left_tibia_foot
      {
        OFFSET -4.370144 -48.10324 -4.275266
        CHANNELS 3 Zrotation Xrotation Yrotation
        End Site
        {
          OFFSET 0 -5 15
        }
      }
    }
  }
  JOINT pelvis_spine1
  {
    OFFSET 0 6.468898 -3.129235
    CHANNELS 3 Zrotation Xrotation Yrotation
    JOINT spine1
    {
      OFFSET 0 23.15396 4.99043
      CHANNELS 3 Zrotation Xrotation Yrotation
      JOINT spine2
      {
        OFFSET 0 20.79997 -5.064912
        CHANNELS 3 Zrotation Xrotation Yrotation
        JOINT neck
        {
          OFFSET 0 14.38658 9.616178
          CHANNELS 3 Zrotation Xrotation Yrotation
          End Site
          {
            OFFSET 0 20 0
          }
        }
      }
      JOINT right_manubrium
      {
        OFFSET -5.722621 16.35077 3.967754
        CHANNELS 3 Zrotation Xrotation Yrotation
        JOINT right_clavicle
        {
          OFFSET -13.16364 1.694482 -4.693211
          CHANNELS 3 Zrotation Xrotation Yrotation
          JOINT right_humerus
          {
            OFFSET -28.5034 -0.3100689 -2.792744
            CHANNELS 3 Zrotation Xrotation Yrotation
            JOINT right_radius
            {
              OFFSET -25.15693 0.02248979 -1.271978
              CHANNELS 3 Zrotation Xrotation Yrotation
              End Site
              {
                OFFSET -15 0 0
              }
            }
          }
        }
      }
      JOINT left_manubrium
      {
        OFFSET 5.722621 16.35077 3.967754
        CHANNELS 3 Zrotation Xrotation Yrotation
        JOINT left_clavicle
        {
          OFFSET 13.16364 1.694482 -4.693211
          CHANNELS 3 Zrotation Xrotation Yrotation
          JOINT left_humerus
          {
            OFFSET 29.39168 -1.063119 -2.237045
            CHANNELS 3 Zrotation Xrotation Yrotation
            JOINT left_radius
            {
              OFFSET 24.59957 -0.9528479 0.9047498
              CHANNELS 3 Zrotation Xrotation Yrotation
              End Site
              {
                OFFSET 15 -0 -0
              }
            }
          }
        }
      }
    }
  }
}
MOTION
Frames: 13
Frame Time: 0.0416666666667
0 103.5113 0 0.8673876 0.9949869 0.8108823 1.868642 -22.87511 8.333788 -0 36.81814 -0 2.848712 -14.0172 -6.223541 -6.567385 10.9918 -19.37805 0 -1.728691 0 -2.69458 -23.43499 19.29799 -4.36947 0.05865398 3.364289 2.170948 5.239795 -7.189491 1.629502 21.92755 8.419965 2.966525 -21.8072 10.55245 7.655843 -14.97596 9.922404 81.88207 38.69833 -16.38914 -0 0 15.17192 -12.401 12.35559 8.513172 5.24235 -15.89188 -0.3981237 -89.80384 37.04191 15.58553 0 0 -21.81761 -6.139887 9.198183 23.1442
0.5025126 102.5842 3.33077 0.9164951 1.012998 1.675384 1.655197 -22.43563 8.451441 -0 38.02913 -0 3.123054 -14.0871 -6.221704 -6.670059 10.70195 -19.56789 0 -2.743061 0 -2.663604 -23.57969 19.48577 -4.480697 0.07648872 3.396657 2.118705 5.144093 -7.099454 1.647074 21.95152 8.458842 2.963855 -21.76014 10.6172 7.773566 -14.99605 9.881389 81.52741 38.84942 -15.96333 -0 0 15.45204 -12.46951 12.35381 8.641897 5.179758 -15.62023 -0.3106398 -90.0427 37.34319 15.89932 0 0 -21.42207 -6.448455 9.036196 23.58443
1.010188 101.677 6.823678 0.8460437 0.5316122 2.491995 1.823596 -22.57198 7.737206 -0 36.59034 -0 2.209033 -12.79144 -6.151793 -6.498814 11.1301 -18.8321 0 -0.3704185 0 -2.47738 -22.96627 19.11952 -4.220238 -0.02599788 3.300941 2.077256 5.650835 -7.190458 1.624333 21.98162 8.284461 2.965509 -21.6428 10.36352 7.226202 -15.12145 9.998433 82.60037 37.78506 -16.73041 -0 0 14.7831 -12.91476 12.23765 8.561002 5.312637 -16.34945 -0.7566019 -89.39351 35.86172 15.23109 0 0 -21.7177 -5.206375 9.609445 21.78826
1.496933 100.7307 10.29642 0.6817074 0.7162135 3.221639 2.269295 -23.78056 7.490452 -0 33.78047 -0 1.513846 -12.89828 -6.019404 -6.286166 11.81137 -18.68234 -0 0.3910887 -0 -2.206608 -22.926 18.93613 -4.030649 -0.1284525 3.22623 2.23245 5.825809 -7.42152 1.554438 21.88482 8.23498 2.997724 -21.90156 10.24602 6.998665 -15.24214 10.09713 83.24276 37.60834 -17.56521 -0 0 14.39506 -12.56204 12.14078 8.25639 5.506114 -16.96234 -0.8979333 -89.09354 35.25684 14.85829 0 0 -22.57151 -4.45912 10.10292 20.73736
1.957652 99.72327 13.78534 0.5319894 0.7519381 3.875725 2.674654 -24.80301 7.141735 -0 31.13436 -0 0.748178 -12.70526 -5.898105 -6.075253 12.46434 -18.38728 -0 1.624975 -0 -1.963787 -22.74513 18.69037 -3.813801 -0.2315303 3.145328 2.352139 6.079743 -7.631936 1.49323 21.81304 8.15444 3.022593 -22.08322 10.09277 6.692055 -15.35981 10.20308 83.99866 37.21867 -18.41284 -0 0 13.91718 -12.37435 12.04186 7.987001 5.688941 -17.6266 -1.110405 -88.71684 34.43304 14.40654 0 0 -23.3476 -3.563173 10.602 19.47835
2.379001 98.66338 17.28309 0.3643613 0.8659699 4.444972 3.141642 -25.96766 6.903478 -0 28.26188 -0 0.06569294 -12.73416 -5.809284 -5.856156 13.14899 -18.13711 -0 2.974095 -0 -1.812566 -22.5991 18.41304 -3.596311 -0.3137299 3.07176 2.500878 6.27109 -7.860293 1.432363 21.7288 8.089538 3.044696 -22.29419 9.961777 6.446542 -15.42398 10.30165 84.6921 36.96336 -19.29046 -0 0 13.43225 -12.08296 11.97876 7.680021 5.863765 -18.25523 -1.270108 -88.36211 33.78154 13.93399 0 0 -24.24033 -2.79414 11.02264 18.41052
2.754393 97.56414 20.81753 0.2058849 0.9173328 4.928994 3.603753 -27.03598 6.675138 -0 25.48877 -0 -0.5754182 -12.68567 -5.759266 -5.643064 13.80575 -17.8132 -0 4.739464 -0 -1.763729 -22.37152 18.07281 -3.366459 -0.3757074 3.001601 2.635542 6.469076 -8.074546 1.381995 21.65958 8.014813 3.057935 -22.45415 9.825466 6.196129 -15.43884 10.39598 85.39868 36.65468 -20.16341 -0 0 12.88959 -11.85911 11.94662 7.38618 6.015585 -18.86724 -1.440637 -87.97291 33.11813 13.39682 0 0 -25.11875 -2.049723 11.3751 17.38088
3.078462 96.45713 24.42792 0.06379449 0.8972684 5.326619 4.059866 -27.95926 6.489643 -0 22.90604 -0 -1.112011 -12.57602 -5.776123 -5.443516 14.40777 -17.40067 -0 7.086112 -0 -1.889381 -22.03887 17.64508 -3.126244 -0.4002468 2.940014 2.751107 6.654958 -8.264473 1.34908 21.6119 7.932254 3.057506 -22.5402 9.691753 5.962321 -15.36616 10.47943 86.08891 36.31676 -21.01209 -0 0 12.27814 -11.71649 11.97157 7.111946 6.12715 -19.42401 -1.609978 -87.54285 32.50419 12.77005 0 0 -25.97451 -1.410216 11.60897 16.4988
3.349961 95.38682 28.17295 -0.04652147 0.7504249 5.63872 4.484808 -28.61935 6.326465 -0 20.67812 -0 -1.521543 -12.30951 -5.876145 -5.267109 14.91361 -16.84591 -0 10.22407 -0 -2.234219 -21.54172 17.10658 -2.872079 -0.3772631 2.889216 2.829085 6.842934 -8.412182 1.341386 21.59931 7.833558 3.038503 -22.5099 9.555097 5.733782 -15.1856 10.54971 86.76874 35.89701 -21.80847 -0 0 11.57423 -11.7248 12.06865 6.879707 6.182314 -19.9095 -1.794332 -87.0518 31.90795 12.02706 0 0 -26.75522 -0.8875346 11.69852 15.77499
3.571995 94.41643 32.13117 -0.1093436 0.4299262 5.867953 4.856661 -28.87967 6.188844 -0 18.98298 -0 -1.746486 -11.83265 -6.086793 -5.123861 15.25705 -16.09892 -0 14.40023 -0 -2.871171 -20.81566 16.43342 -2.602757 -0.2886349 2.856483 2.851618 7.031978 -8.495818 1.36905 21.63561 7.713116 2.994315 -22.31741 9.415978 5.515254 -14.8628 10.60152 87.41717 35.37296 -22.50942 -0 0 10.76233 -11.94673 12.26526 6.714125 6.157632 -20.2846 -1.997342 -86.48788 31.34323 11.14438 0 0 -27.40798 -0.5421331 11.59366 15.28787
3.753416 93.62841 36.40103 -0.1075052 -0.1192027 6.019047 5.147138 -28.55451 6.072088 -0 18.0075 -0 -1.731102 -11.09042 -6.431795 -5.019349 15.33118 -15.1011 -0 19.85786 -0 -3.864347 -19.77906 15.61544 -2.316257 -0.1167061 2.853841 2.796791 7.225655 -8.4878 1.442667 21.73528 7.562242 2.917926 -21.91266 9.272125 5.306464 -14.37341 10.63109 88.00528 34.71286 -23.05146 -0 0 9.841316 -12.45922 12.5877 6.650234 6.027839 -20.50654 -2.224502 -85.84983 30.81062 10.11977 0 0 -27.85653 -0.4288006 11.24475 15.10817
3.909655 93.12309 41.09397 -0.02667283 -0.9411813 6.098076 5.329478 -27.40399 5.979685 -0 17.89799 -0 -1.416628 -10.08167 -6.927245 -4.945119 14.9581 -13.80155 -0 26.76904 -0 -5.261422 -18.34218 14.67244 -2.011686 0.1552307 2.90381 2.642675 7.423099 -8.35506 1.571727 21.90895 7.371102 2.80242 -21.25264 9.120986 5.109712 -13.71302 10.63663 88.47681 33.90166 -23.33946 -0 0 8.849952 -13.33527 13.05945 6.734184 5.767343 -20.52112 -2.472088 -85.16503 30.32238 9.000797 0 0 -28.00115 -0.610155 10.60071 15.32022
4.062872 93.00508 46.3133 0.1359525 -2.041413 6.109305 5.388187 -25.15011 5.920799 -0 18.64002 -0 -0.7796001 -8.915155 -7.553732 -4.858942 13.86175 -12.18495 -0 35.04344 -0 -7.041251 -16.43462 13.68596 -1.690201 0.5310307 3.044238 2.374968 7.621123 -8.065053 1.758062 22.15368 7.129317 2.644449 -20.32951 8.956586 4.923792 -12.93635 10.62339 88.74172 32.95379 -23.24146 -0 0 7.908287 -14.615 13.68166 7.020269 5.362574 -20.27802 -2.72196 -84.51799 29.89238 7.941141 0 0 -27.71987 -1.12167 9.639827 15.97682
